<?xml version="1.0" standalone="no"?><!DOCTYPE svg PUBLIC "-//W3C//DTD SVG 1.1//EN" "http://www.w3.org/Graphics/SVG/1.1/DTD/svg11.dtd"><svg t="1602055379869" class="icon" viewBox="0 0 1024 1024" version="1.1" xmlns="http://www.w3.org/2000/svg" p-id="1197" data-spm-anchor-id="a313x.7781069.0.i2" xmlns:xlink="http://www.w3.org/1999/xlink" width="200" height="200"><defs><style type="text/css"></style></defs><path d="M472.082963 171.425185c40.580741 0 80.023704 7.964444 117.001481 23.608889 35.84 15.17037 67.982222 36.788148 95.573334 64.474074 27.591111 27.591111 49.303704 59.828148 64.474074 95.573333 15.644444 37.072593 23.608889 76.420741 23.608889 117.001482s-7.964444 80.023704-23.608889 117.001481c-15.17037 35.84-36.788148 67.982222-64.474074 95.573334-27.591111 27.591111-59.828148 49.303704-95.573334 64.474074-37.072593 15.644444-76.420741 23.608889-117.001481 23.608889s-80.023704-7.964444-117.001482-23.608889c-35.84-15.17037-67.982222-36.788148-95.573333-64.474074-27.591111-27.591111-49.303704-59.828148-64.474074-95.573334-15.644444-37.072593-23.608889-76.420741-23.608889-117.001481s7.964444-80.023704 23.608889-117.001482c15.17037-35.84 36.788148-67.982222 64.474074-95.573333 27.591111-27.591111 59.828148-49.303704 95.573333-64.474074 37.072593-15.644444 76.420741-23.608889 117.001482-23.608889m0-42.666666c-189.62963 0-343.324444 153.694815-343.324444 343.324444 0 189.62963 153.694815 343.324444 343.324444 343.324444 189.62963 0 343.324444-153.694815 343.324444-343.324444 0-189.62963-153.694815-343.324444-343.324444-343.324444z" p-id="1198" fill="#bfbfbf"></path><path d="M875.425185 896.758519c-5.499259 0-10.903704-2.085926-15.075555-6.257778L699.828148 729.979259c-8.343704-8.343704-8.343704-21.807407 0-30.151111s21.807407-8.343704 30.151111 0l160.521482 160.521482c8.343704 8.343704 8.343704 21.807407 0 30.151111a21.333333 21.333333 0 0 1-15.075556 6.257778z" p-id="1199" fill="#bfbfbf"></path></svg>